<svg width="245" height="32" viewBox="0 0 245 32" fill="none" xmlns="http://www.w3.org/2000/svg">
<path d="M9.952 32C9.584 32 9.264 31.896 8.992 31.688L5.08 28.112L1.12 22.952C0.944 22.728 0.832 22.592 0.784 22.544C0.736 22.48 0.712 22.336 0.712 22.112V9.872C0.712 9.648 0.736 9.504 0.784 9.44C0.848 9.376 0.96 9.24 1.12 9.032L4.792 4.28L8.992 0.319999C9.168 0.175998 9.304 0.0879974 9.4 0.0559978C9.512 0.0239983 9.696 0.00799847 9.952 0.00799847H15.88C16.28 0.00799847 16.48 0.207998 16.48 0.607998V4.448C16.48 4.576 16.464 4.712 16.432 4.856C16.416 4.984 16.336 5.096 16.192 5.192L11.68 8.288L8.728 12.08V19.928L11.728 23.72L16.192 26.792C16.32 26.872 16.4 26.968 16.432 27.08C16.464 27.192 16.48 27.312 16.48 27.44V31.4C16.48 31.8 16.28 32 15.88 32H9.952ZM21.562 32C21.162 32 20.962 31.8 20.962 31.4V9.152C20.962 8.944 21.042 8.704 21.202 8.432L26.89 0.367998C27.066 0.127998 27.322 0.00799847 27.658 0.00799847H35.602C35.954 0.00799847 36.21 0.127998 36.37 0.367998L42.082 8.432C42.242 8.656 42.322 8.896 42.322 9.152V31.4C42.322 31.8 42.122 32 41.722 32H34.93C34.53 32 34.33 31.8 34.33 31.4V21.2H28.978V31.4C28.978 31.8 28.778 32 28.378 32H21.562ZM31.642 16.04C33.114 16.04 34.106 15.72 34.618 15.08C35.146 14.424 35.41 13.184 35.41 11.36C35.41 9.536 35.146 8.304 34.618 7.664C34.106 7.008 33.114 6.68 31.642 6.68C30.186 6.68 29.194 7.008 28.666 7.664C28.154 8.304 27.898 9.536 27.898 11.36C27.898 13.184 28.154 14.424 28.666 15.08C29.194 15.72 30.186 16.04 31.642 16.04ZM48.5425 32C48.1425 32 47.9425 31.8 47.9425 31.4V0.607998C47.9425 0.207998 48.1425 0.00799847 48.5425 0.00799847H61.5505C61.9345 0.00799847 62.2545 0.111999 62.5105 0.319999L68.0305 5.792C68.2065 5.952 68.3105 6.088 68.3425 6.2C68.3905 6.312 68.4145 6.496 68.4145 6.752V13.328C68.4145 13.536 68.3345 13.72 68.1745 13.88L65.5345 16.448L63.3025 18.368L65.9425 21.872L68.6545 27.68C68.7185 27.824 68.7665 27.968 68.7985 28.112C68.8465 28.24 68.8705 28.4 68.8705 28.592V31.4C68.8705 31.8 68.6705 32 68.2705 32H61.9345C61.5825 32 61.3425 31.84 61.2145 31.52L57.3505 20.288H55.5505V31.4C55.5505 31.8 55.3505 32 54.9505 32H48.5425ZM58.1905 14.408C59.5185 14.408 60.4225 14.136 60.9025 13.592C61.3825 13.032 61.6225 11.992 61.6225 10.472C61.6225 8.936 61.3825 7.896 60.9025 7.352C60.4225 6.792 59.5185 6.512 58.1905 6.512C56.8785 6.512 55.9745 6.792 55.4785 7.352C54.9825 7.896 54.7345 8.936 54.7345 10.472C54.7345 11.992 54.9825 13.032 55.4785 13.592C55.9745 14.136 56.8785 14.408 58.1905 14.408ZM73.4125 32C73.0125 32 72.8125 31.8 72.8125 31.4V0.607998C72.8125 0.207998 73.0125 0.00799847 73.4125 0.00799847H87.8605C88.2285 0.00799847 88.5485 0.135999 88.8205 0.391999L93.6205 5.192C93.8765 5.464 94.0045 5.784 94.0045 6.152V11.192C94.0045 11.352 93.9725 11.48 93.9085 11.576C93.8445 11.672 93.7485 11.784 93.6205 11.912L89.8525 15.272L89.4925 16.16L89.8525 16.808L93.6205 20.168C93.7485 20.296 93.8445 20.408 93.9085 20.504C93.9725 20.584 94.0045 20.712 94.0045 20.888V25.832C94.0045 26.216 93.8765 26.536 93.6205 26.792L88.8205 31.592C88.5485 31.864 88.2285 32 87.8605 32H73.4125ZM82.9645 26.6C84.2925 26.6 85.1965 26.336 85.6765 25.808C86.1725 25.28 86.4205 24.28 86.4205 22.808C86.4205 21.32 86.1725 20.312 85.6765 19.784C85.1965 19.256 84.2925 18.992 82.9645 18.992C81.6525 18.992 80.7485 19.256 80.2525 19.784C79.7725 20.312 79.5325 21.32 79.5325 22.808C79.5325 24.28 79.7725 25.28 80.2525 25.808C80.7485 26.336 81.6525 26.6 82.9645 26.6ZM82.9645 12.992C84.2925 12.992 85.1965 12.728 85.6765 12.2C86.1725 11.672 86.4205 10.672 86.4205 9.2C86.4205 7.728 86.1725 6.728 85.6765 6.2C85.1965 5.672 84.2925 5.408 82.9645 5.408C81.6525 5.408 80.7485 5.672 80.2525 6.2C79.7725 6.728 79.5325 7.728 79.5325 9.2C79.5325 10.672 79.7725 11.672 80.2525 12.2C80.7485 12.728 81.6525 12.992 82.9645 12.992ZM106.048 32C105.68 32 105.36 31.864 105.088 31.592L100.288 26.792C100.016 26.536 99.88 26.216 99.88 25.832V6.152C99.88 5.784 100.016 5.464 100.288 5.192L105.088 0.391999C105.36 0.135999 105.68 0.00799847 106.048 0.00799847H115.48C115.864 0.00799847 116.184 0.135999 116.44 0.391999L121.24 5.192C121.512 5.464 121.648 5.784 121.648 6.152V25.832C121.648 26.216 121.512 26.536 121.24 26.792L116.44 31.592C116.184 31.864 115.864 32 115.48 32H106.048ZM108.88 25.592H112.648C113.32 25.592 113.656 25.144 113.656 24.248V7.76C113.656 6.848 113.32 6.392 112.648 6.392H108.88C108.224 6.392 107.896 6.848 107.896 7.76V24.248C107.896 25.144 108.224 25.592 108.88 25.592Z" fill="#40DFAF"/>
<path d="M127.996 32C127.596 32 127.396 31.8 127.396 31.4V0.607998C127.396 0.207998 127.596 0.00799847 127.996 0.00799847H141.628C142.012 0.00799847 142.332 0.135999 142.588 0.391999L147.388 5.192C147.66 5.464 147.796 5.784 147.796 6.152V31.4C147.796 31.8 147.596 32 147.196 32H140.404C140.004 32 139.804 31.8 139.804 31.4V6.392H135.388V31.4C135.388 31.8 135.188 32 134.788 32H127.996ZM154.152 32C153.752 32 153.552 31.8 153.552 31.4V0.607998C153.552 0.207998 153.752 0.00799847 154.152 0.00799847H170.88C171.28 0.00799847 171.48 0.207998 171.48 0.607998V5.792C171.48 6.192 171.28 6.392 170.88 6.392H161.544V13.208H170.064C170.464 13.208 170.664 13.408 170.664 13.808V18.2C170.664 18.6 170.464 18.8 170.064 18.8H161.544V25.592H170.88C171.28 25.592 171.48 25.792 171.48 26.192V31.4C171.48 31.8 171.28 32 170.88 32H154.152ZM177.896 32C177.496 32 177.296 31.8 177.296 31.4V19.88C177.296 19.736 177.304 19.608 177.32 19.496C177.352 19.384 177.424 19.272 177.536 19.16L180.656 16.04V15.2L177.464 12.008C177.352 11.88 177.28 11.76 177.248 11.648C177.232 11.536 177.224 11.416 177.224 11.288V0.607998C177.224 0.207998 177.424 0.00799847 177.824 0.00799847H184.616C185.016 0.00799847 185.216 0.207998 185.216 0.607998V12.368H190.592V0.607998C190.592 0.207998 190.792 0.00799847 191.192 0.00799847H197.984C198.384 0.00799847 198.584 0.207998 198.584 0.607998V11.288C198.584 11.416 198.576 11.536 198.56 11.648C198.544 11.76 198.472 11.88 198.344 12.008L195.152 15.2V16.04L198.272 19.16C198.4 19.272 198.472 19.384 198.488 19.496C198.504 19.608 198.512 19.736 198.512 19.88V31.4C198.512 31.8 198.312 32 197.912 32H191.096C190.696 32 190.496 31.8 190.496 31.4V18.752H185.312V31.4C185.312 31.8 185.112 32 184.712 32H177.896ZM210.532 32C210.148 32 209.828 31.864 209.572 31.592L204.772 26.792C204.5 26.536 204.364 26.216 204.364 25.832V0.607998C204.364 0.207998 204.564 0.00799847 204.964 0.00799847H211.756C212.156 0.00799847 212.356 0.207998 212.356 0.607998V25.112C212.356 25.432 212.516 25.592 212.836 25.592H216.772V0.607998C216.772 0.207998 216.972 0.00799847 217.372 0.00799847H224.164C224.564 0.00799847 224.764 0.207998 224.764 0.607998V31.4C224.764 31.8 224.564 32 224.164 32H210.532ZM230.401 32C230.001 32 229.801 31.8 229.801 31.4V26.888C229.801 26.68 229.809 26.512 229.825 26.384C229.857 26.256 229.953 26.152 230.113 26.072L236.401 23.192V18.92L230.209 15.08C229.937 14.92 229.801 14.68 229.801 14.36V5.552C229.801 5.296 229.817 5.112 229.849 5C229.881 4.872 230.001 4.736 230.209 4.592L236.521 0.319999C236.681 0.223998 236.825 0.151998 236.953 0.103997C237.097 0.0399981 237.273 0.00799847 237.481 0.00799847H243.961C244.361 0.00799847 244.561 0.207998 244.561 0.607998V4.688C244.561 5.04 244.441 5.28 244.201 5.408L237.913 8V12.44L244.201 16.04C244.441 16.152 244.561 16.408 244.561 16.808V27.248C244.561 27.376 244.537 27.512 244.489 27.656C244.457 27.8 244.377 27.904 244.249 27.968L236.713 31.712C236.617 31.76 236.497 31.824 236.353 31.904C236.225 31.968 236.097 32 235.969 32H230.401Z" fill="#05573D"/>
</svg>
