<svg width="41" height="32" viewBox="0 0 41 32" fill="none" xmlns="http://www.w3.org/2000/svg">
<path d="M9.24888 32C8.88088 32 8.56088 31.896 8.28888 31.688L4.37688 28.112L0.416875 22.952C0.240875 22.728 0.128875 22.592 0.0808751 22.544C0.0328751 22.48 0.00887513 22.336 0.00887513 22.112V9.872C0.00887513 9.648 0.0328751 9.504 0.0808751 9.44C0.144875 9.376 0.256875 9.24 0.416875 9.032L4.08888 4.28L8.28888 0.319999C8.46488 0.175998 8.60088 0.0879974 8.69688 0.0559978C8.80888 0.0239983 8.99288 0.00799847 9.24888 0.00799847H15.1769C15.5769 0.00799847 15.7769 0.207998 15.7769 0.607998V4.448C15.7769 4.576 15.7609 4.712 15.7289 4.856C15.7129 4.984 15.6329 5.096 15.4889 5.192L10.9769 8.288L8.02488 12.08V19.928L11.0249 23.72L15.4889 26.792C15.6169 26.872 15.6969 26.968 15.7289 27.08C15.7609 27.192 15.7769 27.312 15.7769 27.44V31.4C15.7769 31.8 15.5769 32 15.1769 32H9.24888Z" fill="#40DFAF"/>
<path d="M21.0269 32C20.6269 32 20.4269 31.8 20.4269 31.4V0.607998C20.4269 0.207998 20.6269 0.00799847 21.0269 0.00799847H34.6589C35.0429 0.00799847 35.3629 0.135999 35.6189 0.391999L40.4189 5.192C40.6909 5.464 40.8269 5.784 40.8269 6.152V31.4C40.8269 31.8 40.6269 32 40.2269 32H33.4349C33.0349 32 32.8349 31.8 32.8349 31.4V6.392H28.4189V31.4C28.4189 31.8 28.2189 32 27.8189 32H21.0269Z" fill="#05573D"/>
</svg>
